<svg width="52" height="52" viewBox="0 0 52 52" fill="none" xmlns="http://www.w3.org/2000/svg">
<path d="M1 15.8944C1 15.0035 1.72225 14.2812 2.61318 14.2812H41.5743C42.4653 14.2812 43.1875 15.0035 43.1875 15.8944V43.302C43.1875 47.5535 39.741 51 35.4895 51H8.69798C4.4465 51 1 47.5535 1 43.302V15.8944Z" fill="white" stroke="#2A9DDD"/>
<path d="M1 8.69798C1 4.4465 4.4465 1 8.69798 1H35.4895C39.741 1 43.1875 4.4465 43.1875 8.69798V10.3243C43.1875 11.2153 42.4653 11.9375 41.5743 11.9375H2.61318C1.72224 11.9375 1 11.2153 1 10.3243V8.69798Z" fill="white" stroke="#2A9DDD"/>
<circle cx="38.2913" cy="6.19037" r="1.19781" fill="#2A9DDD"/>
<rect x="29.9062" y="4.99256" width="5.58979" height="2.39563" rx="1.19781" fill="#2A9DDD"/>
<path d="M22.5404 35.5601L22.4191 36.0452L22.4191 36.0452L22.5404 35.5601ZM20.9382 35.0238L20.7575 35.49L20.7597 35.4909L20.9382 35.0238ZM20.938 35.0237L21.1186 34.5575L21.1164 34.5566L20.938 35.0237ZM20.5044 34.8607L20.334 35.3308L20.334 35.3308L20.5044 34.8607ZM18.3446 34.3342L18.4066 33.8381L18.4066 33.8381L18.3446 34.3342ZM23.268 32.6497L23.3893 32.1646L23.3893 32.1646L23.268 32.6497ZM22.1612 32.2779L22.3397 31.8109L22.3296 31.807L22.3193 31.8036L22.1612 32.2779ZM22.1612 32.2779L21.9827 32.745L21.9928 32.7489L22.0031 32.7523L22.1612 32.2779ZM21.5268 32.0403L21.6972 31.5702L21.6972 31.5702L21.5268 32.0403ZM18.7167 31.3574L18.7787 30.8613L18.7787 30.8613L18.7167 31.3574ZM12.1008 32.578L11.8778 32.1305L12.1008 32.578ZM28.6613 31.3061L28.1642 31.3602L28.6613 31.3061ZM13.0543 35.4637L12.8113 35.0267L13.0543 35.4637ZM12.7388 36.6449L12.3095 36.9011L12.7388 36.6449ZM27.2902 36.9835L26.8732 36.7075L26.8732 36.7075L27.2902 36.9835ZM26.2344 35.1718C24.6988 35.3876 23.6178 35.314 22.6617 35.075L22.4191 36.0452C23.5204 36.3205 24.7332 36.3926 26.3735 36.1621L26.2344 35.1718ZM22.6617 35.075C22.1207 34.9398 21.5929 34.7387 21.1166 34.5567L20.7597 35.4909C21.2286 35.67 21.8109 35.8931 22.4191 36.0452L22.6617 35.075ZM21.1189 34.5576L21.1186 34.5575L20.7573 35.4899L20.7575 35.49L21.1189 34.5576ZM21.1164 34.5566C20.9634 34.4982 20.8139 34.4411 20.6748 34.3906L20.334 35.3308C20.4635 35.3777 20.6045 35.4316 20.7595 35.4908L21.1164 34.5566ZM20.6748 34.3906C20.0605 34.1679 19.373 33.9589 18.4066 33.8381L18.2825 34.8304C19.155 34.9394 19.768 35.1256 20.334 35.3308L20.6748 34.3906ZM18.4066 33.8381C16.1511 33.5561 14.0858 34.3181 12.8113 35.0267L13.2973 35.9007C14.4631 35.2525 16.311 34.5839 18.2825 34.8304L18.4066 33.8381ZM20.121 40.3388C17.1664 40.3388 14.5811 38.7555 13.1681 36.3886L12.3095 36.9011C13.8954 39.5578 16.7999 41.3388 20.121 41.3388V40.3388ZM26.8732 36.7075C25.4241 38.8968 22.9408 40.3388 20.121 40.3388V41.3388C23.2904 41.3388 26.0807 39.7166 27.7071 37.2595L26.8732 36.7075ZM23.1468 33.1347C24.082 33.3685 25.3553 33.4389 28.075 32.7661L27.8348 31.7953C25.2015 32.4468 24.1069 32.344 23.3893 32.1646L23.1468 33.1347ZM21.9828 32.745C22.3892 32.9003 22.7257 33.0295 23.1468 33.1347L23.3893 32.1646C23.035 32.076 22.752 31.9684 22.3397 31.8109L21.9828 32.745ZM22.0031 32.7523L22.0031 32.7523L22.3193 31.8036L22.3193 31.8036L22.0031 32.7523ZM21.3564 32.5104C21.5948 32.5968 21.7971 32.6741 21.9827 32.745L22.3397 31.8109C22.1542 31.74 21.9446 31.6599 21.6972 31.5702L21.3564 32.5104ZM18.6546 31.8535C19.8088 31.9978 20.6454 32.2526 21.3564 32.5104L21.6972 31.5702C20.9379 31.295 20.0267 31.0173 18.7787 30.8613L18.6546 31.8535ZM12.3237 33.0256C13.9274 32.2267 16.1809 31.5443 18.6546 31.8535L18.7787 30.8613C16.0533 30.5206 13.5991 31.2731 11.8778 32.1305L12.3237 33.0256ZM12.0297 32.2475C12.0297 27.7788 15.6523 24.1562 20.121 24.1562V23.1562C15.1 23.1562 11.0297 27.2266 11.0297 32.2475H12.0297ZM20.121 24.1562C24.2897 24.1562 27.7227 27.3092 28.1642 31.3602L29.1583 31.2519C28.6621 26.6991 24.8056 23.1562 20.121 23.1562V24.1562ZM11.8778 32.1305C11.9035 32.1177 11.9366 32.1186 11.9648 32.1345C11.9794 32.1428 11.996 32.1569 12.0093 32.1787C12.0236 32.202 12.0297 32.2272 12.0297 32.2475H11.0297C11.0297 32.9562 11.7769 33.298 12.3237 33.0256L11.8778 32.1305ZM28.075 32.7661C28.7417 32.6011 29.2374 31.9775 29.1583 31.2519L28.1642 31.3602C28.1845 31.546 28.0579 31.7401 27.8348 31.7953L28.075 32.7661ZM12.8113 35.0267C12.1398 35.4001 11.9178 36.245 12.3095 36.9011L13.1681 36.3886C13.0636 36.2134 13.1226 35.9978 13.2973 35.9007L12.8113 35.0267ZM26.3735 36.1621C26.5937 36.1311 26.7735 36.223 26.8657 36.341C26.947 36.4451 26.9659 36.5675 26.8732 36.7075L27.7071 37.2595C28.056 36.7324 27.978 36.1408 27.6539 35.7256C27.3406 35.3243 26.8065 35.0914 26.2344 35.1718L26.3735 36.1621Z" fill="#2A9DDD"/>
<path d="M47 29.9062H35.375C33.6491 29.9062 32.25 31.3054 32.25 33.0312V47C32.25 49.2091 34.0409 51 36.25 51H47C49.2091 51 51 49.2091 51 47V33.9062C51 31.6971 49.2091 29.9062 47 29.9062Z" fill="#E5F3F8" stroke="#2A9DDD"/>
</svg>
