<svg width="52" height="51" viewBox="0 0 52 51" fill="none" xmlns="http://www.w3.org/2000/svg">
<path d="M23.3192 8.35679C23.8647 7.93029 24.6395 7.93029 25.185 8.35679L37.744 18.176C38.8474 19.0386 38.2237 20.7786 36.8111 20.7786H11.6931C10.2805 20.7786 9.65684 19.0386 10.7602 18.176L23.3192 8.35679Z" fill="#E5F3F8" stroke="#2A9DDD"/>
<path fill-rule="evenodd" clip-rule="evenodd" d="M24.5619 5.37522C24.5081 5.35547 24.4501 5.34469 24.3895 5.34469C24.1133 5.34469 23.8895 5.56855 23.8895 5.84469V8.03655C23.8895 8.3127 24.1133 8.53655 24.3895 8.53655C24.6656 8.53655 24.8895 8.3127 24.8895 8.03655V6.46254C25.2412 6.36993 25.577 6.22154 25.8831 6.02151C26.4359 5.66024 26.8668 5.14675 27.1212 4.54599C27.3757 3.94522 27.4422 3.28415 27.3125 2.64638C27.1828 2.00861 26.8627 1.42278 26.3925 0.962976C25.9224 0.503169 25.3234 0.190036 24.6713 0.0631757C24.0192 -0.0636848 23.3433 0.00142447 22.729 0.25027C22.1148 0.499116 21.5897 0.920521 21.2204 1.4612C20.9612 1.84049 20.7869 2.26654 20.7058 2.71157C20.6485 3.02636 20.9132 3.2878 21.2332 3.2878C21.5531 3.2878 21.8049 3.02369 21.8916 2.71571C21.9538 2.49464 22.0521 2.2835 22.1838 2.09079C22.4258 1.73647 22.7699 1.46031 23.1724 1.29724C23.575 1.13416 24.0179 1.0915 24.4452 1.17463C24.8726 1.25777 25.2651 1.46297 25.5732 1.76429C25.8813 2.06561 26.0911 2.44952 26.1761 2.86747C26.2611 3.28541 26.2175 3.71862 26.0507 4.11232C25.884 4.50601 25.6017 4.84251 25.2394 5.07926C25.0353 5.21263 24.811 5.31098 24.5761 5.37143C24.5714 5.37265 24.5666 5.37391 24.5619 5.37522Z" fill="#2A9DDD"/>
<path fill-rule="evenodd" clip-rule="evenodd" d="M14.9601 12.7382C16.201 12.7382 17.229 13.6415 17.7913 14.7477C18.1495 15.4525 18.6151 16.1037 19.1775 16.675C20.6104 18.1309 22.5539 18.9487 24.5805 18.9487C26.607 18.9487 28.5505 18.1309 29.9834 16.675C30.5457 16.1038 31.0113 15.4527 31.3695 14.7479C31.9319 13.6416 32.96 12.7382 34.2011 12.7382C34.4853 12.7382 34.7588 12.7837 35.0149 12.8678C36.3017 13.2906 37.7129 14.1614 38.9349 14.7457V14.7457L45.9955 18.1224C47.8639 19.0159 48.6727 21.2636 47.802 23.1428L45.7481 27.5755C44.8774 29.4547 42.657 30.2537 40.7886 29.3601V29.3601C38.9421 28.4771 36.8063 29.8231 36.8063 31.8699V46.2499C36.8063 48.321 35.1274 49.9999 33.0563 49.9999H16.1051C14.0341 49.9999 12.3551 48.321 12.3551 46.2499V31.7601C12.3551 29.7782 10.2693 28.4893 8.49677 29.3758V29.3758C6.64448 30.3023 4.41074 29.5425 3.50758 27.6787L1.37829 23.2847C0.475129 21.4209 1.24455 19.159 3.09685 18.2325L10.0996 14.73C10.1256 14.717 10.1516 14.7043 10.1778 14.692C11.4304 14.1007 12.9018 13.2278 14.232 12.8413C14.4631 12.7742 14.7074 12.7382 14.9601 12.7382Z" fill="white"/>
<path d="M17.7913 14.7477L18.237 14.5212L18.237 14.5212L17.7913 14.7477ZM19.1775 16.675L18.8211 17.0258L18.8211 17.0258L19.1775 16.675ZM29.9834 16.675L30.3398 17.0258L29.9834 16.675ZM31.3695 14.7479L30.9238 14.5214L30.9238 14.5214L31.3695 14.7479ZM45.9955 18.1224L45.7798 18.5735L45.7798 18.5735L45.9955 18.1224ZM47.802 23.1428L47.3483 22.9326L47.3483 22.9326L47.802 23.1428ZM45.7481 27.5755L46.2018 27.7857L46.2018 27.7857L45.7481 27.5755ZM3.50758 27.6787L3.95753 27.4607L3.95753 27.4607L3.50758 27.6787ZM1.37829 23.2847L0.928335 23.5027L0.928335 23.5027L1.37829 23.2847ZM3.09685 18.2325L3.32052 18.6797L3.32052 18.6797L3.09685 18.2325ZM10.0996 14.73L9.87592 14.2828L9.87592 14.2828L10.0996 14.73ZM18.237 14.5212C17.6262 13.3195 16.4585 12.2382 14.9601 12.2382V13.2382C15.9435 13.2382 16.8318 13.9636 17.3455 14.9743L18.237 14.5212ZM19.5338 16.3243C19.0079 15.7901 18.5723 15.1809 18.237 14.5212L17.3455 14.9743C17.7267 15.7242 18.2223 16.4174 18.8211 17.0258L19.5338 16.3243ZM24.5805 18.4487C22.6891 18.4487 20.8736 17.6855 19.5338 16.3243L18.8211 17.0258C20.3472 18.5762 22.4188 19.4487 24.5805 19.4487V18.4487ZM29.6271 16.3243C28.2873 17.6855 26.4718 18.4487 24.5805 18.4487V19.4487C26.7422 19.4487 28.8137 18.5762 30.3398 17.0258L29.6271 16.3243ZM30.9238 14.5214C30.5885 15.181 30.1529 15.7901 29.6271 16.3243L30.3398 17.0258C30.9385 16.4175 31.4341 15.7244 31.8153 14.9745L30.9238 14.5214ZM34.2011 12.2382C32.7025 12.2382 31.5347 13.3196 30.9238 14.5214L31.8153 14.9745C32.3291 13.9637 33.2175 13.2382 34.2011 13.2382V12.2382ZM35.171 12.3928C34.8652 12.2924 34.5389 12.2382 34.2011 12.2382V13.2382C34.4316 13.2382 34.6525 13.2751 34.8588 13.3429L35.171 12.3928ZM38.7192 15.1968L45.7798 18.5735L46.2112 17.6713L39.1506 14.2947L38.7192 15.1968ZM45.7798 18.5735C47.4012 19.3489 48.1039 21.3018 47.3483 22.9326L48.2557 23.353C49.2414 21.2254 48.3266 18.683 46.2112 17.6713L45.7798 18.5735ZM47.3483 22.9326L45.2945 27.3653L46.2018 27.7857L48.2557 23.353L47.3483 22.9326ZM45.2945 27.3653C44.5409 28.9917 42.6214 29.6824 41.0043 28.9091L40.5729 29.8112C42.6925 30.8249 45.214 29.9176 46.2018 27.7857L45.2945 27.3653ZM37.3063 46.2499V31.8699H36.3063V46.2499H37.3063ZM33.0563 50.4999C35.4035 50.4999 37.3063 48.5971 37.3063 46.2499H36.3063C36.3063 48.0448 34.8512 49.4999 33.0563 49.4999V50.4999ZM16.1051 50.4999H33.0563V49.4999H16.1051V50.4999ZM11.8551 46.2499C11.8551 48.5971 13.7579 50.4999 16.1051 50.4999V49.4999C14.3102 49.4999 12.8551 48.0448 12.8551 46.2499H11.8551ZM11.8551 31.7601V46.2499H12.8551V31.7601H11.8551ZM3.05763 27.8967C4.08228 30.0112 6.61898 30.8741 8.72044 29.823L8.2731 28.9287C6.66997 29.7305 4.7392 29.0737 3.95753 27.4607L3.05763 27.8967ZM0.928335 23.5027L3.05763 27.8967L3.95753 27.4607L1.82824 23.0666L0.928335 23.5027ZM2.87318 17.7853C0.776101 18.8342 -0.0941786 21.3927 0.928335 23.5027L1.82824 23.0666C1.04444 21.4492 1.71301 19.4837 3.32052 18.6797L2.87318 17.7853ZM9.87592 14.2828L2.87318 17.7853L3.32052 18.6797L10.3233 15.1772L9.87592 14.2828ZM9.96431 14.2398C9.93476 14.2538 9.90529 14.2681 9.87592 14.2828L10.3233 15.1772C10.3458 15.1659 10.3685 15.1549 10.3912 15.1441L9.96431 14.2398ZM14.9601 12.2382C14.6597 12.2382 14.3684 12.281 14.0925 12.3612L14.3715 13.3215C14.5577 13.2674 14.7551 13.2382 14.9601 13.2382V12.2382ZM10.3912 15.1441C11.0154 14.8495 11.7354 14.4644 12.3968 14.1383C13.0816 13.8008 13.75 13.502 14.3715 13.3215L14.0925 12.3612C13.3838 12.5671 12.6514 12.898 11.9547 13.2414C11.2348 13.5962 10.5927 13.9432 9.96431 14.2398L10.3912 15.1441ZM12.8551 31.7601C12.8551 29.4065 10.3781 27.8758 8.2731 28.9287L8.72044 29.823C10.1605 29.1027 11.8551 30.1499 11.8551 31.7601H12.8551ZM41.0043 28.9091C38.8259 27.8673 36.3063 29.4552 36.3063 31.8699H37.3063C37.3063 30.191 39.0582 29.0868 40.5729 29.8112L41.0043 28.9091ZM34.8588 13.3429C35.4626 13.5412 36.1078 13.8492 36.7701 14.1906C37.4171 14.5242 38.1004 14.9009 38.7192 15.1968L39.1506 14.2947C38.5474 14.0062 37.9142 13.6554 37.2283 13.3018C36.5578 12.9561 35.8541 12.6173 35.171 12.3928L34.8588 13.3429Z" fill="#2A9DDD"/>
<rect x="16.3562" y="28.0813" width="5.22924" height="5.84498" rx="1.5" fill="#E5F3F8" stroke="#2A9DDD"/>
<rect x="32.9344" y="34.3051" width="6.5025" height="15.6949" fill="white"/>
<rect x="24.2938" y="46.8635" width="26.7087" height="3.13655" rx="1.56827" fill="white" stroke="#2A9DDD"/>
<rect width="6.37078" height="2.42814" rx="1.21407" transform="matrix(0.175041 0.984561 -0.985356 0.170508 45.7713 32.8066)" fill="white" stroke="#2A9DDD"/>
<rect x="34.9064" y="32.4569" width="12.3136" height="2.91402" rx="1.45701" fill="white" stroke="#2A9DDD"/>
<path d="M26.4954 42.6506C27.7532 39.7511 30.6123 37.875 33.7729 37.875H46.0536C47.7841 37.875 49.2433 39.1645 49.4561 40.8818L49.5526 41.66C49.7639 43.3644 48.4345 44.8686 46.7172 44.8686H27.9509C26.8088 44.8686 26.0408 43.6983 26.4954 42.6506V42.6506Z" fill="#E5F3F8" stroke="#2A9DDD"/>
<ellipse cx="36.0841" cy="41.2907" rx="1.09914" ry="1.08438" fill="#2A9DDD"/>
<ellipse cx="39.9923" cy="41.2907" rx="1.09914" ry="1.08438" fill="#2A9DDD"/>
<ellipse cx="43.9001" cy="41.2907" rx="1.09914" ry="1.08438" fill="#2A9DDD"/>
</svg>
