<svg width="52" height="51" viewBox="0 0 52 51" fill="none" xmlns="http://www.w3.org/2000/svg">
<rect x="1.99905" y="1.69662" width="47.3716" height="3.1073" rx="1.55365" fill="white" stroke="#2A9DDD"/>
<path d="M26.2751 8.76171L38.8977 18.5924C39.6076 19.1453 39.2411 20.3036 38.2673 20.3036H13.0221C12.0483 20.3036 11.6818 19.1453 12.3917 18.5924L25.0143 8.76171C25.3819 8.47541 25.9075 8.47541 26.2751 8.76171Z" fill="#E5F3F8" stroke="#2A9DDD"/>
<path fill-rule="evenodd" clip-rule="evenodd" d="M26.1282 5.3306C26.029 5.26434 25.9098 5.2257 25.7815 5.2257C25.4364 5.2257 25.1565 5.50553 25.1565 5.8507V8.04514C25.1565 8.39032 25.4364 8.67014 25.7815 8.67014C26.1267 8.67014 26.4065 8.39032 26.4065 8.04514V6.4355C26.6434 6.36386 26.8725 6.26672 27.0893 6.14522C27.6016 5.85815 28.0276 5.44514 28.3248 4.94743C28.6221 4.44972 28.7801 3.88473 28.7832 3.30887C28.7863 2.73302 28.6343 2.16645 28.3424 1.66574C28.0505 1.16504 27.6289 0.74772 27.1198 0.455463C26.6106 0.163206 26.0317 0.00623609 25.4408 0.000228746C24.8499 -0.0057786 24.2678 0.139387 23.7525 0.421228C23.4128 0.607028 23.11 0.847939 22.8564 1.13227C22.6404 1.37437 22.7351 1.74047 23.0156 1.90342C23.2872 2.06122 23.631 1.96567 23.8585 1.749C23.9966 1.61745 24.1524 1.50352 24.3223 1.41062C24.66 1.22592 25.0415 1.13079 25.4287 1.13473C25.8159 1.13866 26.1953 1.24153 26.5289 1.43305C26.8626 1.62457 27.1389 1.89805 27.3301 2.22617C27.5214 2.5543 27.621 2.92558 27.619 3.30295C27.617 3.68033 27.5134 4.05058 27.3186 4.37674C27.1238 4.7029 26.8447 4.97356 26.509 5.16168C26.3873 5.22984 26.2598 5.28631 26.1282 5.3306Z" fill="#2A9DDD"/>
<path fill-rule="evenodd" clip-rule="evenodd" d="M15.8137 12.8075C17.1126 12.8075 18.19 13.7502 18.8154 14.8885C19.1859 15.5629 19.6609 16.1868 20.2303 16.7365C21.7355 18.1896 23.7769 19.006 25.9055 19.006C28.034 19.006 30.0755 18.1896 31.5806 16.7365C32.1498 16.187 32.6246 15.5635 32.9951 14.8893C33.6209 13.7506 34.6988 12.8075 35.9981 12.8075C36.4414 12.8075 36.8602 12.9124 37.231 13.0987C38.1286 13.5497 39.1314 14.0536 40.0724 14.4052C40.1405 14.4306 40.2081 14.4586 40.2751 14.489L49.1082 18.5033C50.6794 19.2174 51.34 21.0538 50.5836 22.6051L47.8536 28.2042C47.0972 29.7555 45.2103 30.4342 43.6391 29.7202L42.0613 29.0031C40.5095 28.2979 38.7478 29.4324 38.7478 31.1369V46.875C38.7478 48.6009 37.3487 50 35.6228 50H16.1902C14.4643 50 13.0652 48.6009 13.0652 46.875V31.1959C13.0652 29.4737 11.27 28.3397 9.71474 29.0794L8.30923 29.7479C6.75065 30.4892 4.85194 29.8436 4.06833 28.3058L1.23729 22.7502C0.453676 21.2125 1.08191 19.365 2.64048 18.6237L11.3956 14.4594C11.502 14.4088 11.6099 14.3647 11.719 14.3269C12.6848 13.9919 13.7222 13.5007 14.6476 13.0665C15.0016 12.9004 15.3968 12.8075 15.8137 12.8075Z" fill="white"/>
<path d="M18.8154 14.8885L18.3771 15.1292L18.3771 15.1292L18.8154 14.8885ZM20.2303 16.7365L19.8831 17.0962L19.8831 17.0962L20.2303 16.7365ZM31.5806 16.7365L31.2333 16.3768L31.2333 16.3768L31.5806 16.7365ZM32.9951 14.8893L32.5569 14.6485L32.5569 14.6485L32.9951 14.8893ZM40.2751 14.489L40.482 14.0338L40.482 14.0338L40.2751 14.489ZM49.1082 18.5033L49.3151 18.0481L49.3151 18.0481L49.1082 18.5033ZM50.5836 22.6051L50.1342 22.386L50.1342 22.386L50.5836 22.6051ZM47.8536 28.2042L47.4042 27.9851L47.4042 27.9851L47.8536 28.2042ZM43.6391 29.7202L43.4322 30.1754L43.4322 30.1754L43.6391 29.7202ZM8.30923 29.7479L8.09447 29.2964L8.09447 29.2964L8.30923 29.7479ZM4.06833 28.3058L3.62283 28.5328L3.62283 28.5328L4.06833 28.3058ZM1.23729 22.7502L1.68278 22.5232L1.68278 22.5232L1.23729 22.7502ZM2.64048 18.6237L2.42572 18.1721L2.42572 18.1721L2.64048 18.6237ZM11.3956 14.4594L11.1808 14.0079L11.1808 14.0079L11.3956 14.4594ZM14.6476 13.0665L14.4352 12.6138L14.6476 13.0665ZM42.0613 29.0031L42.2682 28.5479L42.0613 29.0031ZM19.2536 14.6477C18.5823 13.4259 17.3681 12.3075 15.8137 12.3075V13.3075C16.857 13.3075 17.7976 14.0744 18.3771 15.1292L19.2536 14.6477ZM20.5776 16.3768C20.0443 15.8619 19.5999 15.2781 19.2536 14.6477L18.3771 15.1292C18.7719 15.8478 19.2776 16.5117 19.8831 17.0962L20.5776 16.3768ZM25.9055 18.506C23.9039 18.506 21.9878 17.7382 20.5776 16.3768L19.8831 17.0962C21.4832 18.6411 23.6498 19.506 25.9055 19.506V18.506ZM31.2333 16.3768C29.8232 17.7382 27.907 18.506 25.9055 18.506V19.506C28.1611 19.506 30.3277 18.6411 31.9279 17.0962L31.2333 16.3768ZM32.5569 14.6485C32.2107 15.2786 31.7664 15.8621 31.2333 16.3768L31.9279 17.0962C32.5331 16.5119 33.0386 15.8483 33.4333 15.1301L32.5569 14.6485ZM35.9981 12.3075C34.4432 12.3075 33.2286 13.4263 32.5569 14.6485L33.4333 15.1301C34.0133 14.0748 34.9543 13.3075 35.9981 13.3075V12.3075ZM37.4555 12.652C37.0166 12.4314 36.5211 12.3075 35.9981 12.3075V13.3075C36.3617 13.3075 36.7038 13.3934 37.0065 13.5455L37.4555 12.652ZM39.8974 14.8736C39.9547 14.895 40.0117 14.9185 40.0683 14.9442L40.482 14.0338C40.4045 13.9986 40.3262 13.9663 40.2474 13.9368L39.8974 14.8736ZM40.0683 14.9442L48.9013 18.9585L49.3151 18.0481L40.482 14.0338L40.0683 14.9442ZM48.9013 18.9585C50.2163 19.5561 50.7672 21.0877 50.1342 22.386L51.033 22.8243C51.9128 21.02 51.1425 18.8786 49.3151 18.0481L48.9013 18.9585ZM50.1342 22.386L47.4042 27.9851L48.303 28.4233L51.033 22.8243L50.1342 22.386ZM47.4042 27.9851C46.7665 29.2929 45.1706 29.867 43.8459 29.265L43.4322 30.1754C45.25 31.0015 47.4279 30.2181 48.303 28.4233L47.4042 27.9851ZM43.8459 29.265L42.2682 28.5479L41.8544 29.4583L43.4322 30.1754L43.8459 29.265ZM39.2478 46.875V31.1369H38.2478V46.875H39.2478ZM35.6228 50.5C37.6249 50.5 39.2478 48.877 39.2478 46.875H38.2478C38.2478 48.3247 37.0726 49.5 35.6228 49.5V50.5ZM16.1902 50.5H35.6228V49.5H16.1902V50.5ZM12.5652 46.875C12.5652 48.877 14.1882 50.5 16.1902 50.5V49.5C14.7404 49.5 13.5652 48.3247 13.5652 46.875H12.5652ZM12.5652 31.1959V46.875H13.5652V31.1959H12.5652ZM8.52399 30.1994L9.9295 29.5309L9.49998 28.6279L8.09447 29.2964L8.52399 30.1994ZM3.62283 28.5328C4.52941 30.3119 6.72085 31.0571 8.52399 30.1994L8.09447 29.2964C6.78046 29.9214 5.17447 29.3753 4.51382 28.0788L3.62283 28.5328ZM0.791794 22.9773L3.62283 28.5328L4.51382 28.0788L1.68278 22.5232L0.791794 22.9773ZM2.42572 18.1721C0.612943 19.0343 -0.119623 21.1887 0.791794 22.9773L1.68278 22.5232C1.02698 21.2363 1.55087 19.6956 2.85525 19.0752L2.42572 18.1721ZM11.1808 14.0079L2.42572 18.1721L2.85525 19.0752L11.6103 14.911L11.1808 14.0079ZM11.5552 13.8545C11.4289 13.8983 11.3039 13.9494 11.1808 14.0079L11.6103 14.911C11.7001 14.8683 11.791 14.8311 11.8829 14.7993L11.5552 13.8545ZM15.8137 12.3075C15.3219 12.3075 14.8543 12.4172 14.4352 12.6138L14.86 13.5191C15.1489 13.3835 15.4718 13.3075 15.8137 13.3075V12.3075ZM11.8829 14.7993C12.8785 14.454 13.9418 13.95 14.86 13.5191L14.4352 12.6138C13.5027 13.0514 12.491 13.5299 11.5552 13.8545L11.8829 14.7993ZM13.5652 31.1959C13.5652 29.1063 11.387 27.7303 9.49998 28.6279L9.9295 29.5309C11.153 28.949 12.5652 29.8411 12.5652 31.1959H13.5652ZM42.2682 28.5479C40.3853 27.6923 38.2478 29.0687 38.2478 31.1369H39.2478C39.2478 29.796 40.6337 28.9036 41.8544 29.4583L42.2682 28.5479ZM37.0065 13.5455C37.8987 13.9938 38.9264 14.5107 39.8974 14.8736L40.2474 13.9368C39.3364 13.5964 38.3585 13.1057 37.4555 12.652L37.0065 13.5455Z" fill="#2A9DDD"/>
<rect x="17.7091" y="28.0643" width="5.25411" height="5.81187" rx="1.25" fill="#E5F3F8" stroke="#2A9DDD"/>
</svg>
