<svg width="52" height="51" viewBox="0 0 52 51" fill="none" xmlns="http://www.w3.org/2000/svg">
<rect x="1.00002" y="42.0453" width="50" height="7.95467" rx="3.73333" fill="white" stroke="#2A9DDD"/>
<rect x="-0.405953" y="0.578651" width="12.5439" height="4.43049" rx="1.64286" transform="matrix(0.173121 0.984901 -0.985027 0.172401 41.5225 12.5394)" fill="white" stroke="#2A9DDD"/>
<rect x="21.4543" y="11.3633" width="23.0824" height="5.32679" rx="2.66339" fill="white" stroke="#2A9DDD"/>
<path d="M7.23209 27.4809C8.24368 24.6315 10.9397 22.7278 13.9633 22.7278H44.5302C45.9965 22.7278 47.2247 23.8378 47.3727 25.2966L48.46 36.0159C48.6023 37.4187 47.5012 38.6371 46.0912 38.6371H5.29447C4.3077 38.6371 3.61809 37.6605 3.94822 36.7306L7.23209 27.4809Z" fill="white" stroke="#2A9DDD"/>
<ellipse cx="23.2299" cy="30.1854" rx="1.77557" ry="1.7756" fill="#2A9DDD"/>
<ellipse cx="30.3327" cy="30.1854" rx="1.77557" ry="1.7756" fill="#2A9DDD"/>
<ellipse cx="37.4341" cy="30.1854" rx="1.77557" ry="1.7756" fill="#2A9DDD"/>
<path d="M18.6337 15.9089C18.6337 18.1456 16.8307 19.9544 14.6121 19.9544C12.3936 19.9544 10.5906 18.1456 10.5906 15.9089C10.5906 13.6721 12.3936 11.8633 14.6121 11.8633C16.8307 11.8633 18.6337 13.6721 18.6337 15.9089Z" fill="#E5F3F8" stroke="#2A9DDD"/>
<path d="M11.8048 5.68191C11.8048 8.54629 9.49571 10.8638 6.65286 10.8638C3.81001 10.8638 1.50092 8.54629 1.50092 5.68191C1.50092 2.81752 3.81001 0.5 6.65286 0.5C9.49571 0.5 11.8048 2.81752 11.8048 5.68191Z" fill="#E5F3F8" stroke="#2A9DDD"/>
</svg>
